<?xml version="1.0" encoding="iso-8859-1"?>
<!-- Generator: Adobe Illustrator 16.0.0, SVG Export Plug-In . SVG Version: 6.00 Build 0)  -->
<!DOCTYPE svg PUBLIC "-//W3C//DTD SVG 1.1//EN" "http://www.w3.org/Graphics/SVG/1.1/DTD/svg11.dtd">
<svg version="1.1" id="Capa_1" xmlns="http://www.w3.org/2000/svg" xmlns:xlink="http://www.w3.org/1999/xlink" x="0px" y="0px"
	 width="612.002px" height="612.002px" viewBox="0 0 612.002 612.002" style="enable-background:new 0 0 612.002 612.002;"
	 xml:space="preserve">
<g>
	<g>
		<path style="fill:#fbc94a;" d="M320.077,186.773c-4.251-0.452-8.565-0.684-12.819-0.684c-61.293,0-112.437,46.037-118.96,107.085
			c-3.395,31.808,5.805,63.04,25.905,87.938c20.097,24.895,48.685,40.475,80.489,43.866c4.258,0.452,8.583,0.684,12.847,0.684
			c0.004,0,0.007,0,0.011,0c61.301,0,112.44-46.033,118.957-107.078c3.396-31.815-5.805-63.047-25.908-87.946
			C380.494,205.745,351.898,190.168,320.077,186.773z M412.554,317.098c-5.752,53.904-50.897,94.547-105.012,94.54
			c-3.77,0-7.593-0.204-11.36-0.607c-28.08-2.995-53.314-16.747-71.058-38.728c-17.747-21.983-25.87-49.555-22.871-77.638
			c5.759-53.9,50.905-94.546,105.009-94.546c3.76,0,7.572,0.204,11.332,0.604c28.093,2.995,53.339,16.747,71.089,38.731
			C407.43,261.437,415.553,289.011,412.554,317.098z"/>
		<path style="fill:#fbc94a;" d="M610.162,234.056c-0.241-0.663-0.525-1.519-0.792-2.326l-0.33-0.989c-4.384-12.388-10.981-31.163-19.188-54.539
			c-0.196-0.628-0.438-1.315-0.673-1.982c-0.176-0.501-0.351-0.989-0.562-1.645c-4.608-13.153-12.851-15.117-17.354-15.117
			c-1.925,0-3.893,0.354-5.786,1.031c-8.583,2.971-22.553,7.832-40.552,14.113c-17.242-28.325-39.591-52.666-66.541-72.485
			c17.677-36.259,17.93-37.044,18.217-37.938c0.39-1.203,0.646-2.452,0.747-3.599c0.856-7.888-3.899-14.142-14.193-18.613
			c-1.154-0.505-10.771-5.173-28.563-13.861l-3.806-1.876c-13.082-6.454-23.418-11.549-24.663-12.237
			c-11.592-6.349-20.423-4.84-25.646,2.904c-0.428,0.625-1.137,1.659-20.416,40.769c-17.782-3.837-35.961-5.776-54.363-5.776
			c-0.491,0-0.968,0.056-1.431,0.154c-10.196,0.07-20.413,0.747-30.461,2.03c-14.675-41.547-15.39-42.982-15.688-43.574
			c-2.838-5.437-7.79-8.432-13.952-8.432c-3.304,0-6.976,0.838-11.22,2.563c-1.224,0.484-13.892,4.974-29.914,10.652
			c-22.114,7.754-29.307,10.231-30.037,10.455c-16.382,4.924-16.982,14.864-15.874,20.381c0.186,0.908,0.347,1.697,15.015,43.729
			c-26.42,16.21-49.449,36.974-68.578,61.848c-40.208-18.694-40.965-18.936-41.94-19.251c-1.627-0.495-3.255-0.744-4.83-0.744
			c-7.274,0-12.98,4.91-16.961,14.597c-0.463,1.098-4.963,10.799-13.373,28.812c-9.354,19.922-13.156,27.933-13.587,28.771
			c-7.93,15.152-1.287,22.51,3.36,25.533c0.737,0.484,1.571,1.031,40.856,19.518c-7.271,30.265-8.982,60.96-5.103,91.408
			C9.993,353.139,9.187,353.574,8.454,353.974c-4.98,2.561-12.374,9.234-5.952,25.011c0.291,0.768,3.248,9.08,10.659,30.086
			c7.109,20.384,10.168,29.278,10.396,29.99c3.977,13.476,11.398,16.306,16.922,16.306c1.105,0,2.252-0.119,3.438-0.357
			c0.652-0.137,1.985-0.41,43.764-14.962c14.359,23.541,32.372,44.43,53.662,62.219l-20.917,42.691
			c-3.63,7.464-2.571,17.869,11.279,24.681l0.93,0.456c0.722,0.354,1.519,0.743,2.325,1.154
			c22.447,10.981,40.316,19.749,52.22,25.617c0.968,0.459,2.206,1.073,3.143,1.536c4.146,2.027,8.067,3.055,11.655,3.055
			c6.467,0,11.841-3.392,14.73-9.273c3.423-6.892,8.684-17.593,15.38-31.204l4.114-8.365c33.239,9.487,68.171,12.121,102.55,7.685
			l14.331,40.545c2.493,7.046,8.287,11.09,15.898,11.09c2.949,0,6.184-0.617,9.585-1.831l3.35-1.161
			c8.196-2.876,19.111-6.724,32.316-11.378l22.591-7.961c0.688-0.256,1.477-0.526,2.213-0.786l1.112-0.386
			c12.163-4.289,14.614-11.815,14.979-15.804c0.267-2.451-0.046-4.977-0.93-7.513c-2.978-8.544-7.888-22.514-14.197-40.471
			c27.715-16.94,51.687-38.889,71.384-65.352c17.533,8.193,31.166,14.541,39.468,18.406c2.389,1.115,4.822,1.68,7.239,1.68
			c4.097,0,11.781-1.743,17.161-13.296l1.609-3.359c5.546-11.894,13.97-29.956,24.513-52.501c0.526-1.088,1.165-2.417,1.6-3.382
			c1.858-3.97,2.82-7.736,2.848-11.101c0.147-6.811-3.332-12.397-9.55-15.326l-5.271-2.477c-8.442-3.963-20.332-9.543-34.821-16.358
			c4.094-18.36,6.177-37.04,6.194-55.604c0.018-10.638-0.648-21.349-1.985-31.92c15.856-5.569,28.581-10.062,37.237-13.114
			l3.248-1.147c6.534-2.251,10.567-7.505,11.062-14.334C612.215,242.07,611.636,238.275,610.162,234.056z M597.946,244.374
			c-0.095,1.312-0.417,1.736-1.693,2.174l-3.297,1.165c-9.614,3.392-24.253,8.558-42.625,15.008
			c-3.177,1.115-5.113,4.332-4.611,7.664c1.764,11.732,2.647,23.699,2.627,35.578c-0.018,19.335-2.41,38.804-7.103,57.874
			c-0.8,3.244,0.803,6.601,3.823,8.025c16.831,7.919,30.548,14.358,39.973,18.781l5.261,2.469c1.301,0.614,1.522,1.144,1.494,2.424
			c-0.007,0.979-0.28,2.704-1.561,5.443c-0.428,0.943-1.004,2.143-1.522,3.216c-10.592,22.644-19.021,40.71-24.526,52.525l-1.6,3.34
			c-1.704,3.657-3.486,5.299-4.496,5.299c-0.344,0-0.793-0.126-1.312-0.368c-9.119-4.24-24.643-11.472-44.694-20.848
			c-3.068-1.438-6.727-0.473-8.688,2.291c-20.3,28.556-45.679,51.792-75.441,69.062c-2.915,1.691-4.216,5.216-3.098,8.394
			l0.628,1.781c6.924,19.697,12.29,34.968,15.464,44.073c0.189,0.54,0.27,1.017,0.218,1.487c-0.092,1.014-1.888,2.637-5.689,3.977
			l-1.041,0.365c-0.835,0.291-1.726,0.6-2.396,0.849l-22.479,7.92c-13.198,4.654-24.109,8.498-32.299,11.37l-3.402,1.175
			c-2.371,0.85-3.967,1.024-4.889,1.024c-1.855,0-2.256-0.558-2.67-1.729l-16.245-45.953c-1.003-2.838-3.676-4.679-6.608-4.679
			c-0.351,0-0.708,0.024-1.062,0.08c-36.005,5.486-72.99,2.701-107.79-8.119c-3.293-1.023-6.85,0.505-8.375,3.603l-6.731,13.686
			c-6.685,13.591-11.938,24.277-15.369,31.19c-0.642,1.312-1.171,1.455-2.15,1.455c-0.807,0-2.596-0.214-5.451-1.609
			c-0.961-0.478-2.293-1.137-3.241-1.586c-11.812-5.822-29.693-14.598-52.048-25.533c-0.765-0.389-1.642-0.817-2.431-1.206
			l-0.894-0.438c-6.264-3.079-5.282-5.097-4.875-5.935l23.359-47.671c1.448-2.953,0.649-6.517-1.918-8.568
			c-23.355-18.666-42.74-41.158-57.615-66.853c-1.687-2.911-5.198-4.216-8.382-3.111c-31.864,11.111-45.413,15.73-47.548,16.383
			c-0.154,0.024-0.302,0.038-0.446,0.038c-0.807,0-2.255-2.146-3.5-6.355c-0.47-1.504-5.647-16.417-10.582-30.555
			c-3.785-10.729-10.22-28.946-10.845-30.588c-2.329-5.72-1.42-6.923-0.771-7.337c2.494-1.003,18.385-6.66,47.268-16.835
			c3.174-1.115,5.106-4.332,4.605-7.664c-4.879-32.334-3.051-65.029,5.426-97.177c0.863-3.272-0.733-6.695-3.798-8.137
			c-34.831-16.375-43.522-20.57-44.381-21.023c-0.446-0.291-1.803-1.171,1.399-7.292c0.747-1.435,7.947-16.727,13.861-29.321
			c11.437-24.505,13.321-28.637,13.643-29.43c1.979-4.815,3.581-5.899,3.984-5.899c0.088,0,0.267,0.011,0.544,0.077
			c3.546,1.505,33.884,15.615,45.461,21.002c3.02,1.403,6.629,0.484,8.61-2.206c19.81-26.939,44.294-49.015,72.773-65.611
			c2.904-1.69,4.198-5.201,3.09-8.372c-4.223-12.097-15.303-43.831-16.428-47.486c-0.084-0.701,0.21-2.167,6.225-3.974
			c1.834-0.561,22.022-7.632,30.637-10.655c22.194-7.863,29.458-10.444,30.534-10.887c3.108-1.266,4.938-1.532,5.928-1.532
			c0.884,0,1.073,0.091,1.399,0.677c0.908,2.287,6.488,17.799,16.922,47.37c1.123,3.178,4.342,5.11,7.667,4.602
			c11.669-1.764,23.636-2.666,35.568-2.68c0.477,0,0.947-0.053,1.395-0.147c18.509,0.084,37.062,2.315,55.167,6.636
			c3.191,0.761,6.475-0.786,7.919-3.725c15.078-30.604,21.282-42.964,21.883-44.048c0.494-0.733,0.659-0.733,1.09-0.733
			c0.789,0,2.642,0.291,6.036,2.146c0.982,0.579,5.686,2.908,25.372,12.616l3.83,1.887c27.684,13.521,28.735,13.962,29.209,14.159
			c4.093,1.782,5.867,3.434,5.772,4.328c-0.014,0.175-0.045,0.34-0.087,0.509c-1.505,3.434-15.471,32.063-20.122,41.597
			c-1.512,3.1-0.547,6.839,2.276,8.821c29.062,20.37,52.708,46.114,70.29,76.519c1.684,2.915,5.194,4.219,8.386,3.111
			c20.605-7.194,36.519-12.732,45.999-16.015c0.435-0.154,0.824-0.235,1.133-0.235c1.259,0,2.914,2.301,4.036,5.496
			c0.18,0.575,0.411,1.231,0.646,1.901c0.183,0.516,0.368,1.042,0.593,1.743c8.281,23.604,14.889,42.393,19.23,54.675l0.277,0.831
			c0.319,0.961,0.659,1.982,0.905,2.651C597.929,241.572,598.034,243.322,597.946,244.374z"/>
		<path style="fill:#fbc94a;" d="M188.315,425.807c-3.644-3.577-6.818-6.966-9.81-10.479c-0.256-0.288-0.502-0.597-0.747-0.908l-0.646-0.793
			c-2.781-3.332-5.387-6.685-7.958-10.245c-0.116-0.179-0.231-0.351-0.351-0.512c-0.102-0.179-0.214-0.354-0.333-0.522
			c-8.866-12.679-15.881-26.245-20.84-40.313c-4.935-14.025-7.979-29.072-9.045-44.718c-0.003-0.074-0.01-0.144-0.018-0.218
			c-0.003-0.165-0.014-0.329-0.028-0.498c-3.588-58.007,23.758-114.709,71.384-148.012c3.174-2.22,3.949-6.594,1.729-9.768
			c-2.22-3.174-6.597-3.949-9.768-1.729c-51.589,36.076-81.219,97.489-77.35,160.319c-0.003,0.073-0.007,0.144-0.007,0.168
			c-0.014,0.513,0.024,1.021,0.119,1.519c1.203,16.614,4.482,32.625,9.754,47.598c5.275,14.955,12.668,29.367,21.991,42.846
			c0.179,0.357,0.389,0.698,0.628,1.024c0.123,0.164,0.249,0.322,0.403,0.512c0.063,0.095,0.126,0.189,0.193,0.284
			c2.82,3.914,5.678,7.601,8.716,11.233l0.48,0.593c0.399,0.502,0.803,0.996,1.115,1.347c3.107,3.655,6.502,7.285,10.368,11.091
			c0.158,0.175,0.319,0.354,0.473,0.516c1.336,1.402,3.178,2.171,5.075,2.171c0.484,0,0.975-0.049,1.459-0.154
			c2.381-0.505,4.328-2.21,5.146-4.5l0.017-0.049c0.972-2.722,0.154-5.637-1.837-7.481
			C188.522,426.018,188.42,425.912,188.315,425.807z"/>
	</g>
</g>
<g>
</g>
<g>
</g>
<g>
</g>
<g>
</g>
<g>
</g>
<g>
</g>
<g>
</g>
<g>
</g>
<g>
</g>
<g>
</g>
<g>
</g>
<g>
</g>
<g>
</g>
<g>
</g>
<g>
</g>
</svg>
