<?xml version="1.0" encoding="utf-8"?>
<!-- Generator: Adobe Illustrator 19.0.0, SVG Export Plug-In . SVG Version: 6.00 Build 0)  -->
<svg version="1.1" id="Layer_1" xmlns="http://www.w3.org/2000/svg" xmlns:xlink="http://www.w3.org/1999/xlink" x="0px" y="0px"
	 viewBox="588 -1016 2200 2800" style="enable-background:new 588 -1016 2200 2800;" xml:space="preserve">
<style type="text/css">
	.st0{fill:#424242;stroke:#424242;}
	.st1{fill:#424242;stroke:#424242;stroke-width:2;stroke-miterlimit:10;}
	.st2{stroke:#424242;fill:#424242;stroke-width:2;stroke-miterlimit:10;}
</style>
<g>
	<path d="M2234.5-875.9c-4.4,1-19,4.4-32.5,7.5c-13.5,3.1-26.1,6.3-28,7.1c-7.2,2.9-13,11-13,17.9c0,5.2,21,88.3,22.7,90
		c2.1,2.1,6.1,2.8,8.9,1.5c5.5-2.4,5.4-2.8-5.5-47.3c-5.6-22.7-10.1-42.5-10.1-44c0-1.8,0.8-3.3,2.3-4.3c3.1-2,54-13.7,54.7-12.5
		c0.3,0.5,1.4,5,2.4,9.9c1.4,7.1,2.2,9.1,3.5,9.1c3.7-0.1,13.6-2.7,13.5-3.6c-0.1-0.5-1.6-8.2-3.4-17.2
		C2246.2-880.4,2247.7-879,2234.5-875.9L2234.5-875.9z M2101.5-843c-41.7,11.7-52.6,15.2-52,16.9c0.2,0.9,6.3,21.2,13.5,45.1
		c14.1,46.8,14.7,48.3,22.6,52.4c6.4,3.4,12.2,2.7,39.4-5.1c13.5-3.8,27.8-7.8,31.9-8.9c4-1,7.5-2.4,7.8-3c0.7-2-22.5-89.4-24.8-93
		c-1.1-1.9-4-4.6-6.4-5.9C2126.2-848.9,2121.8-848.6,2101.5-843z M2125.9-831.6c1.7,2,21.3,75.8,20.4,76.6c-1.3,1.1-48.9,14-51.7,14
		c-2,0-3-0.8-4.2-3.3c-1.4-3-22.5-73.9-22.1-74.3c0.1-0.1,11-3.2,24.2-6.8c13.2-3.7,24.5-6.9,25-7.1
		C2120-833.4,2124.9-832.9,2125.9-831.6L2125.9-831.6z M1957.8-841.5c-4.8,2.7-4.6,5.4,1.5,23.8c5.5,16.7,5.5,16.8,3.4,17.6
		c-1.2,0.4-5.9,2.1-10.4,3.7c-4.6,1.6-8.3,3.4-8.3,4.1c0,1.1,3.8,11.4,4.4,12.1c0.2,0.1,4.9-1.4,10.6-3.3c5.6-2,10.4-3.4,10.6-3.2
		c0.2,0.2,7.2,20.3,15.5,44.8c8.3,24.4,15.5,44.8,15.9,45.3c0.5,0.4,11.2-2.6,24-6.9c20.5-6.8,23.7-8.2,26.9-11.4
		c3.7-3.7,6.1-9.5,6.1-14.7c0-3.9-7-26.4-8.8-28.7c-2.2-2.6-8.3-2.3-11,0.6c-2.9,3-2.8,4.3,1.2,16.7c3.4,10.7,3.5,15.2,0.4,17.2
		c-1.8,1.1-28.9,10.1-29.2,9.7c-0.6-0.7-25.6-76.4-25.6-77.4c0-0.6,10.1-4.3,22.4-8.3c12.3-3.9,22.8-7.7,23.4-8.4
		c0.6-0.7,1.3-2.5,1.7-4c0.5-2.1,0.1-3.3-1.9-5.2c-1.4-1.5-3.5-2.6-4.8-2.6s-12,3.1-23.8,7c-11.8,3.8-21.8,6.6-22.1,6.2
		c-0.4-0.4-3-7.9-5.9-16.7c-2.9-8.8-5.8-16.6-6.4-17.2C1965.7-842.8,1960.7-843.1,1957.8-841.5L1957.8-841.5z M1902.8-778.6
		c-11.9,4.4-22.6,9-23.8,10c-3.2,3.1-2.4,7.3,2.1,9.9l3.6,2.1l13.9-5.2c7.6-2.8,14.5-5.3,15.2-5.4c1.7-0.4,10.9,23.9,9.6,25.2
		c-0.5,0.5-11.1,4.7-23.6,9.4c-12.5,4.7-24.5,9.4-26.7,10.5c-7.6,3.9-13.1,13.5-11.7,20.5c0.6,3.2,18.4,48.5,19.5,49.9
		c0.4,0.4,4.7-0.9,9.7-2.9c4.9-2,19.3-7.6,31.9-12.5c15.9-6,24.2-9.8,26.9-12c5-4.2,8-10.8,7.4-16.4c-0.4-3.4-29.5-86.2-31.7-90.1
		C1924.7-786.4,1917.4-784.1,1902.8-778.6z M1935.9-711.1c4,10.8,6,17.7,5.6,19c-0.5,1.6-9.7,7.1-11.9,7.1c-0.3,0-9.4,3.4-20.2,7.5
		c-10.8,4.2-19.7,7.5-19.8,7.3c-1.7-2.8-12.6-32.5-12.6-34.2c0-1.3,0.8-3,1.8-4c1.8-1.5,47.4-19.5,49.8-19.6
		C1929.2-728,1932.5-720.4,1935.9-711.1L1935.9-711.1z M1725.9-749.1c-1.6,1.6-2.9,3.6-2.9,4.4c0,2,52.6,117.4,55.2,120.9
		c3.2,4.5,9.4,7.2,16.3,7.2c5.4-0.1,8.5-1.2,29.3-10.3c12.9-5.6,24.6-11.1,26.2-12.2c4.5-3.4,7.3-9.4,7.3-15.8c0-5-2-10.5-17.8-48.8
		l-17.9-43.1l-4.7,1.8c-5.2,2.1-50,21.3-59,25.3l-5.7,2.6l-6.7-15.2c-3.8-8.4-7.9-16.2-9.2-17.5
		C1733-752.8,1729.4-752.6,1725.9-749.1L1725.9-749.1z M1817.3-716.3c19.8,46.8,24.7,59.1,24.7,61.5c0,1.6-0.8,3.5-1.9,4.4
		c-2.7,2.3-42.7,19.4-45.3,19.4c-1.3,0-2.8-0.4-3.5-0.8c-1-0.7-10.9-22-28.9-62.5c-4.3-9.8-4.3-9.8-2.1-10.7
		c1.2-0.5,13-5.6,26.2-11.4s24.5-10.5,25.2-10.5C1812.3-727,1814.9-722.2,1817.3-716.3L1817.3-716.3z M1712.8-697.9
		c-3.2,1.6-5.8,3.2-5.8,3.4c0,0.3,9,19.5,20,42.7c11,23.3,20,42.6,20,43c0,0.5-10.2,5.8-22.7,11.9c-18,8.7-23.5,10.9-26.3,10.7
		l-3.5-0.3l-19.6-38.8c-10.7-21.4-20.2-39.3-21-39.8c-4.3-2.7-12.1,1.3-12.1,6.3c0,3.2,37.4,76.9,41.4,81.3c1.6,1.9,4.9,4.1,7.4,5.1
		c8.3,3.1,11.8,2,45.7-14.3c16.9-8.1,30.7-15,30.7-15.3c-0.1-2.2-46-98.5-47.1-98.7C1719.1-700.8,1715.9-699.6,1712.8-697.9
		L1712.8-697.9z M1592.5-638.4c-38.1,20.5-39.6,21.6-42.5,30.7c-2.4,7.5-1.2,10.2,23.1,52.9c12.6,22.1,23.3,40.4,23.8,40.6
		c0.4,0.1,9.9-4.9,21.2-11.1c11.2-6.3,25.8-14.2,32.4-17.7c19.3-10.2,19.5-10.4,19.5-15c0-4.3-2.6-7-6.8-7
		c-2.2,0-16.3,7.3-46.1,23.7c-7.3,4.1-13.7,7.3-14.2,7.1c-1.5-0.5-37.9-66.2-37.9-68.4c0-1.2,0.8-3.1,1.8-4.3
		c1.6-2,45-26.1,46.9-26.1c0.5,0,2.9,3.7,5.3,8.2c5.3,10.2,7.6,12.8,11,12.8c4,0,8-3.5,8-7.1c0-3.5-15.6-33.9-17.3-33.9
		C1620-653,1607.4-646.4,1592.5-638.4L1592.5-638.4z M1512-591.7c-4.2,1.2-41.4,22.9-48.7,28.4c-3.8,2.9-8.3,11.4-8.3,15.8
		c0,1.6,0.4,4.4,0.9,6.1c1.1,3.8,49.9,81.4,51.2,81.4c0.9,0,11.9-7,11.9-7.5c0-0.2-10.8-17.6-24-38.9
		c-13.3-21.2-24.3-39.3-24.6-40.1c-0.4-0.8,0.1-2.6,0.9-3.9c1.9-2.9,42.6-27.6,45.5-27.6c1.1,0,2.7,0.6,3.5,1.4
		c0.7,0.8,11.2,18.1,23.2,38.6c23.3,39.6,23.9,40.3,29.7,37.9c3.2-1.3,4.8-3.6,4.8-6.9c0-2.5-42-75.3-45.8-79.3
		C1527-591.9,1519.7-593.8,1512-591.7L1512-591.7z M1398.9-522.1c-42.1,28-39.9,26.2-39.9,31c0,4.4,2.6,7.1,6.7,7.1
		c1.2,0,8.3-4.1,15.7-9.2c7.5-5,13.7-9,13.9-8.7c1.9,2.3,45.7,68.2,45.5,68.4c-0.2,0.1-4.4,2.9-9.4,6.3c-4.9,3.3-11.5,7.8-14.6,9.9
		l-5.6,4l3.6,5.6c2,3.1,4,5.7,4.3,5.7c0.4,0,15.8-10.2,34.3-22.6c22.9-15.3,34-23.3,34.6-25c1.8-4.5-1.8-9.4-6.8-9.4
		c-1.1,0-7.8,3.8-14.8,8.4l-12.8,8.5l-7.5-11.2c-4.1-6.2-14.4-21.7-22.8-34.5l-15.3-23.3l15.5-10.1l15.5-10.1l-1.7-2.6
		c-0.9-1.4-2.6-4.1-3.7-5.8c-1.2-1.8-2.4-3.3-2.7-3.3C1430.5-543,1416.1-533.6,1398.9-522.1L1398.9-522.1z"/>
	<path class="st0" d="M1257.9-419.1c-1.4,0.5-3.6,1.4-5,2.1c-3.4,1.9-38.8,30.2-42.6,34.2c-5.8,6-7.6,13.4-5,20.5
		c1.4,3.8,47.7,60.5,52.2,63.8c1.6,1.3,5,2.8,7.4,3.5c7.5,2,12.7,0,24.5-9.2c5.5-4.4,10.9-8.9,11.9-10c2.5-2.9,2.2-8.3-0.5-10.2
		c-4.2-3-6.8-2-17.3,6.4c-10.4,8.4-13.2,9.8-16,8.3c-1.8-1-14.5-16.3-14.5-17.4c0-0.7,22.7-18.9,44.6-35.9l12.2-9.4l-12-15.7
		c-17.6-23.1-21-27.1-24.5-29.1C1269.7-419.3,1261.7-420.3,1257.9-419.1L1257.9-419.1z M1266.4-402.8c1.4,1.3,7,8.1,12.6,15.3l10,13
		l-2.4,1.8c-1.3,0.9-11.5,8.9-22.5,17.7c-11.1,8.8-20.5,16-20.9,16c-0.6-0.1-19.4-22.9-23-28c-0.8-1.1-1.1-2.8-0.7-4
		c0.9-2.7,40-34,42.5-34C1263-405,1265-404,1266.4-402.8L1266.4-402.8z M1158.4-340.3c-27.7,23.7-34.6,30.5-36.2,35.9
		c-1.7,5.7-1.5,9.2,0.7,14c2.1,4.6,59.2,68.5,62.3,69.6c2.8,1.1,6.6-0.1,8.3-2.5c3.5-5.1,3-5.9-28-40.7
		c-18.7-21-29.5-33.9-29.5-35.2c0-2.5,2.3-4.8,24.9-24.3l17.3-14.9l3.2,3.4c1.7,2,4.7,5.5,6.8,7.9l3.6,4.5l3.4-2.6
		c1.8-1.5,4.5-3.7,6-5l2.7-2.3l-10.9-13c-6-7.1-11.3-13.1-11.8-13.3C1180.7-358.9,1170.5-350.6,1158.4-340.3L1158.4-340.3z
		 M1082.3-272.1c-19.2,17.9-20.6,19.6-19.8,23.1c0.9,3.5,1.7,4.1,6.3,4.7c3.9,0.5,4.2,0.4,15.9-10.5l11.9-11l9.3,10.1l9.4,10
		l-6.4,6.1c-32.6,30.9-35.7,34.1-37.4,39.9c-3.2,11.1-1.1,14.8,22.2,37.9l16.8,16.6l25-23.9c13.8-13.1,25.9-25.5,26.9-27.6
		c2.7-5.1,3.1-12.9,0.9-17.5c-1-2.1-15.1-18.2-31.3-35.8c-16.2-17.7-30.4-33.2-31.6-34.6l-2.1-2.6L1082.3-272.1L1082.3-272.1z
		 M1149.5-207.4c0.7,1.8,0.5,3.1-0.5,4.7c-1.7,2.5-36.9,36.2-37.9,36.2c-1.3,0-24.9-25.1-25.5-27.2c-0.9-2.8,1.6-5.6,23.1-25.9
		l16.2-15.5l11.8,12.6C1143.2-215.5,1148.9-208.8,1149.5-207.4L1149.5-207.4z M1014-204.5l-5.5,5.5l34.4,33.8l34.3,33.7l-11.5,11.3
		l-11.4,11.4l-19.9-19l-19.8-19l-5.2,5.6l-5.2,5.7l12.2,11.5c6.6,6.3,15.6,14.8,19.8,19l7.8,7.5l-11.2,12
		c-13,13.9-14.2,14.9-17.1,14.1c-1.2-0.3-16.4-13.6-33.7-29.5c-29.1-26.8-31.8-29-35.2-29c-2.8-0.1-4.1,0.5-5.8,2.6
		c-4.6,5.9-4.4,6.1,31.3,38.5c18.1,16.3,34.3,30.1,35.9,30.7c4.9,1.7,12.7,1.3,17.3-0.9c2.4-1.2,8.2-6.5,14.4-13.1
		c15.8-16.9,17.4-18.9,16.7-21.9c-0.4-2.4-0.2-2.6,2.5-2.2c2.6,0.4,4.4-1.1,20.3-17.4c9.5-9.9,17.5-18.1,17.6-18.4
		c0.2-0.3-17.2-17.9-38.6-39.2l-39-38.8L1014-204.5L1014-204.5z M914.8-99.8c-2.6,2.9-9.6,11-15.6,18c-5.9,7-11.1,12.7-11.7,12.7
		c-0.5,0-7-5.1-14.3-11.4c-14.8-12.7-16.5-13.4-21.3-8.6c-2.8,2.9-3.5,5.3-2.3,8.4c0.3,0.8,6.6,6.6,14,12.8
		C871-61.7,877-56.5,877-56.2c0,0.2-3.2,4.3-7.2,9c-7,8.3-7.1,8.5-5.1,10.1c8,6.4,9.5,7.4,10.1,6.4c0.4-0.5,3.6-4.4,7.1-8.6
		c5.5-6.6,6.6-7.5,7.9-6.5c0.9,0.7,17.2,14.4,36.3,30.4c19,16,35.1,29.4,35.7,29.8c1.4,0.9,31-33.9,33.5-39.3
		c2.2-5,1.9-11.9-0.7-16.9c-1.6-3.1-18.6-19.1-22.3-21.1c-4.2-2.2-10.3,2.2-10.3,7.5c0,2.8,1.1,4.2,8.8,10.9
		c10,8.8,11.9,11.6,10.3,15.2c-1.4,3-19.2,23.5-20.1,23.1c-1.4-0.5-62-52.3-62-52.9c0-0.3,6.2-7.7,13.8-16.4
		c18.8-21.5,19-21.9,15.1-26.9C924.5-106.8,920.6-106,914.8-99.8L914.8-99.8z M848.8-19.6c-2.5,1-14.3,15.3-35.1,42.5
		c-10.8,14-12.7,19.2-10.3,27.3c0.9,2.9,2.5,6.3,3.6,7.6c1.1,1.3,17.8,14.3,37.2,28.9c31.9,23.9,35.6,26.4,38.3,25.9
		c6.3-1.2,8.7-8.7,4.1-12.9c-1.3-1.2-7.8-6.3-14.5-11.2c-6.6-5-12-9.4-12.1-9.8c0-0.5,7-9.8,15.6-20.8s15.4-20.1,15.3-20.3
		c-0.2-0.1-2.7-2.1-5.6-4.4l-5.2-4.3l-9.3,11.8c-5.1,6.5-12.4,15.7-16.1,20.6l-6.8,8.7l-8.2-6.2c-20-15.1-21.7-16.7-21.7-19.9
		c0-3.3,3.5-8.2,27.7-38.7c6.3-7.9,11.8-15.3,12.2-16.5C860-16.8,854.2-22,848.8-19.6L848.8-19.6z M778.5,74.9
		c-6.4,3-7.6,4.4-33.9,42.1c-8.6,12.3-15.3,22.7-14.9,23c3.6,3.2,77,52.3,79.4,53.2c4.5,1.5,13,0.5,17.2-2.1c2.6-1.6,9-9.7,21-26.4
		c9.4-13.2,18.8-26.4,20.9-29.1l3.6-5.1l-36.5-27c-20.1-14.9-38.2-27.8-40.2-28.7C790.4,72.5,783.5,72.6,778.5,74.9z M818.1,110.1
		c16.7,12.2,31,22.6,31.6,23.3c1,0.9-1.9,5.7-14,22.5c-8.3,11.8-16,21.9-16.9,22.5c-1.2,0.7-2.6,0.7-4.5,0
		c-1.6-0.6-16.7-10.6-33.6-22.4l-30.8-21.3l1.7-2.6c5.7-8.8,30.5-43,31.6-43.4c0.7-0.3,2-0.6,2.9-0.6C787,88,801.4,97.9,818.1,110.1
		z M709.6,168.3c-32.1,49.4-33.6,52-33.6,58.7c0,4.3,2,9.8,4.5,12.9c3.2,3.7,23.7,16.5,29.3,18.2c5.9,1.7,13.7-0.1,18.6-4.4
		c2.1-1.8,9.9-12.9,17.4-24.7c9.8-15.3,14.5-21.7,16.3-22.4c2.1-0.7,4.1,0.2,13.7,6.4c7.8,5,11.4,7.9,11.8,9.6
		c0.7,2.6,1.6,1-20.1,34.9c-15.4,24-15.6,24.5-12.9,28.2c1.7,2.2,2.9,2.8,6,2.8c3.6,0,4.1-0.4,7.6-5.5
		c10.3-15.4,31.1-48.6,32.4-51.5c3.1-7.5,1-17.9-4.8-23.1c-3.6-3.3-20.6-14.4-24.4-16c-7.5-3.1-16.3-0.7-22.4,6.2
		c-1.9,2.2-9.1,12.8-16,23.6c-12.3,19.4-15.1,22.5-18.8,21c-3.4-1.3-19.1-11.4-20.8-13.3c-3.9-4.3-3.7-4.8,26.9-51.7
		c4.8-7.3,8.7-13.7,8.7-14.2c0-0.9-9.8-8-11-8C717.7,156,713.9,161.5,709.6,168.3z"/>
	<path d="M2484.7,398.3c-7.4,8.9-17.1,20.5-21.6,25.7c-9.6,11.2-12,17-10.1,24.1c1.7,6.3,3.5,8.4,15.3,18.5
		c12.4,10.6,16.8,12.4,25,10.3c6.2-1.5,9.2-4.4,26-24.4c11.3-13.5,14.8-17.1,17-17.3c2.2-0.3,4.5,1.1,11.5,6.9c4.8,4,9,7.8,9.4,8.4
		c2.1,2.9-0.1,6.4-19.2,28.9c-17.4,20.5-20,24-20,26.9c0,4.2,2.6,6.7,6.8,6.7c3.5,0,5-1.6,30.1-31.5c15.2-18.2,18.1-23,18.1-29.9
		c-0.1-6.4-3.4-11.1-14.5-20.3c-12.1-10.1-14.2-11.2-20.7-11.3c-9.3,0-10.4,0.8-29.1,23c-16.1,19-17.1,20-19.6,20
		c-1.9,0-13.9-9.3-18.8-14.7c-4.5-4.8-3.8-6.1,18.2-32.3c11.3-13.5,20.5-24.7,20.5-25s-2.4-2.4-5.4-4.7l-5.4-4.3L2484.7,398.3
		L2484.7,398.3z M2608,394c-2.6,2.6-2.6,8.1-0.2,10.3c4.5,4,12.2,0.6,12.2-5.3c0-1.7-0.9-3.9-2-5s-3.3-2-5-2S2609.1,392.9,2608,394z
		 M2587.2,420.3c-4.6,4.9-1.6,12.1,5,11.9c3.9-0.1,6.8-3.2,6.8-7.3C2599,418.7,2591.5,415.8,2587.2,420.3z M2424.8,470.8
		c-5.4,3.1-34.7,35.1-37.8,41.3c-2.3,4.4-2.6,11.6-0.7,16.2c1.4,3.2,10.9,12.5,49.6,48.2l19.3,17.9l5-5.2c2.7-2.9,4.8-5.6,4.6-6.2
		c-0.2-0.5-14.7-14.1-32.4-30.3c-17.7-16.2-32.4-30.2-32.8-31.2c-0.3-0.9-0.2-2.4,0.3-3.3c1.8-3.4,29.7-34,32-35.1
		c1.9-1,2.8-0.9,4.9,0.5c1.4,0.9,15.9,13.5,32.2,27.9c16.3,14.4,30.5,26.5,31.7,26.9c4.3,1.4,9.2-2.9,9.3-8c0-2.8-2.9-5.6-32.5-31.5
		c-17.8-15.6-33.7-28.9-35.2-29.6C2437.3,467.1,2430,467.7,2424.8,470.8L2424.8,470.8z M2357.5,544.4c-2.8,1.2-8.8,7.2-40,39.4
		l-11,11.3l32.4,31.7c18.1,17.7,33.9,32.5,36,33.4c4.7,2.3,10.6,2.2,15.6-0.1c3.9-1.8,15.3-13,40.3-39.4
		c6.2-6.5,11.2-12.2,11.2-12.6c0-1.6-65.2-61.7-68.8-63.3C2368.8,542.7,2361.7,542.6,2357.5,544.4z M2372.8,563.2
		c3.2,2.9,15.6,14.5,27.5,25.7l21.6,20.4l-15.6,16.4c-17.9,18.8-20.7,21.3-23.4,21.3c-1.2,0-12-9.8-28.5-25.9
		c-14.6-14.3-26.6-26.2-26.7-26.5c-0.1-0.2,7.6-8.6,17.1-18.5c13-13.5,18-18.1,19.7-18.1C2366,558,2369.2,560,2372.8,563.2z
		 M2263.4,582c-2.6,1-5.4,4.8-5.4,7.3c0,1,1.1,2.9,2.6,4.3c1.9,2,3.1,2.4,5.2,1.9c4-1,6.2-3.4,6.2-6.9c0-3.7-0.7-4.9-3.7-6.5
		C2265.8,580.8,2266.2,580.9,2263.4,582L2263.4,582z M2289.3,612.2l-5.2,5.1l35.6,36.4c19.6,20,36.6,36.6,37.9,36.9
		c2.6,0.7,7.9-1.8,8.8-4.1c2.1-5.5,1.8-5.8-35.7-43.3l-36.2-36.2L2289.3,612.2L2289.3,612.2z M2262.7,638.7
		c-3.4,3.1-10.6,10-15.9,15.2l-9.7,9.4l-12.6-13.1c-14-14.6-16.1-15.6-21-10.7c-4.6,4.5-4,5.7,14.5,24.9l8.5,8.9l-7.7,7.1l-7.6,7.1
		l4.8,5.3l4.8,5.4l7.7-7.4l7.7-7.3l4.7,5.2c9,10,58.5,62.3,59.1,62.3c0.3,0,8.5-7.8,18.2-17.3c19.3-18.7,20.8-21.1,19.3-30.1
		c-0.8-5.7-1.8-7.1-12.1-18c-7.8-8.2-9.6-9.6-12.3-9.6c-4,0-8.1,3.9-8.1,7.6c0,2,2.2,4.9,9,11.8c6.7,6.9,9,9.9,9,11.8
		c0,2.1-2.3,4.8-10.5,12.5c-5.8,5.4-11,9.8-11.5,9.8c-0.6,0-13-12.6-27.6-28l-26.6-28l15.6-15c13.9-13.3,15.7-15.4,15.6-18.2
		c0-3.5-3.8-7.3-7.2-7.3C2269.7,633,2266.1,635.6,2262.7,638.7L2262.7,638.7z M2181.5,714.6c-8.8,8-16.4,15.5-16.8,16.7
		c-1.6,4.3,2.6,8.7,8.3,8.7c1,0,6.6-4.3,12.4-9.6c5.8-5.3,11-9.4,11.4-9.2c1.2,0.5,16.2,17,16.2,17.8c0,0.6-29.9,27.7-35.3,32
		c-3.6,2.9-7.7,11.6-7.7,16.5c0,2.2,0.8,5.7,1.8,7.7s9.2,12,18.2,22.2c14.4,16.4,16.5,18.5,17.9,17.3c6.2-5.2,46.1-41,48.3-43.3
		c5.5-5.8,7.3-14.9,4.4-21.7c-1-2.4-61.9-69.9-62.9-69.7C2197.6,700.1,2190.3,706.6,2181.5,714.6L2181.5,714.6z M2235.1,762.6
		c6.3,6.9,11.6,13,11.7,13.5c1.2,3-2.3,7.1-18.5,21.6c-9.8,8.8-18.3,16.2-19,16.6c-0.7,0.5-5.6-4.3-12.8-12.4
		c-9.5-10.6-11.6-13.5-11.3-15.7c0.2-2,4.9-6.8,18.8-19.4c10.2-9.2,18.8-16.7,19.1-16.8C2223.5,750,2228.9,755.7,2235.1,762.6
		L2235.1,762.6z M2056.3,770c-2.6,1-4.3,4-4.3,7.2c0,1.4,4.1,7.2,11,15.5c6.1,7.3,11,13.7,11,14.2c0,0.4-3.4,3.6-7.5,7l-7.5,6.3
		l2,2.6c6,8.1,6.8,8.7,8.7,7.1c1-0.8,4.6-3.9,8-6.7l6.2-5.3l29.1,35.3c16.1,19.4,29.8,35.3,30.5,35.3s9.2-6.6,18.8-14.7
		c21.5-18.1,24-22.1,20.7-33.9c-0.9-3.3-13.1-18.9-18.2-23.2c-2.8-2.4-6.5-2.1-9.3,0.8c-4.3,4.2-3.4,6.9,5.5,17.5
		c4.4,5.2,8,10.4,8,11.5c0,2.9-1,4-12.8,13.9l-10.3,8.6l-16.2-19.3c-27.1-32.2-33.2-39.7-33.2-40.9c0-0.6,7-7,15.5-14.2
		c9.3-7.9,15.9-14.3,16.4-15.9c1.3-3.7-1.9-8.1-6.2-8.5c-3.2-0.3-3.4-0.2-25.9,19.1c-5.1,4.3-9.7,7.7-10.2,7.5
		c-0.5-0.1-5.6-6-11.5-13C2062.2,768.9,2061.1,768.1,2056.3,770L2056.3,770z M2016,803.3c-3.8,1.9-5.7,5.9-4.2,9.1
		c2.5,5.5,10.2,5.2,12.9-0.5c1.7-3.4,0.6-6.7-2.8-8.4C2018.6,801.7,2019.1,801.7,2016,803.3z M2039.1,836.1
		c-3.1,2.5-4.8,4.5-4.4,5.2s14.8,18.9,32.1,40.4c29.5,36.9,31.6,39.3,34.6,39.3c6.1,0,10-5.4,7.5-10.2c-1.8-3.4-62.9-78.8-63.8-78.8
		C2044.6,832,2042,833.8,2039.1,836.1L2039.1,836.1z M2008.5,861.4c-4.8,2.1-27.9,20.5-28.8,22.8c-0.4,1.2-0.6,2.7-0.3,3.3
		c0.2,0.7-0.8,0.9-3,0.7c-3.1-0.4-5.4,1.1-23.8,14.9c-11.6,8.6-20.2,15.7-19.9,16.3c0.4,0.6,14.6,20.1,31.6,43.3l30.9,42.2l4.2-3
		c7.7-5.6,7.8-5.7,7-7.1c-0.4-0.7-12.6-17.3-27-36.8s-26.3-35.9-26.4-36.3c-0.2-1.3,26.3-20.8,27-20c0.4,0.5,8.5,11.1,18,23.8
		c9.5,12.6,18,23.6,18.8,24.2c4,3.3,10.8,0.2,11.7-5.2c0.5-2.7-1.4-5.5-18-27.2c-10.2-13.3-18.5-24.6-18.5-25.1
		c0-1.4,22.1-18.2,23.9-18.2c0.9,0,2.2,0.4,2.9,0.8c0.6,0.5,12.8,15.6,27,33.8c23.8,30.4,26,32.9,29.1,33.2c4.4,0.4,8.1-2.9,8.1-7.2
		c0-4.6-50.9-69.1-57.1-72.4C2021.1,859.7,2013.3,859.3,2008.5,861.4L2008.5,861.4z M1887.1,901.6c-2.6,3.3-2.6,5.5-0.3,8.5
		c4,4.8,12.2,1.7,12.2-4.6C1899,899.1,1891.1,896.5,1887.1,901.6L1887.1,901.6z M1911.7,933.1c-3.9,2.8-5.5,4.5-4.9,5.3
		c0.5,0.6,14,19.4,30,41.7c18.9,26.3,29.9,40.9,31.3,41.2c4.7,1.2,10.4-3.7,9.7-8.3c-0.3-2-58.6-83.8-59.8-83.9
		C1917.7,929,1914.9,930.8,1911.7,933.1L1911.7,933.1z M1830.3,990c-2.5,1-4.3,3.9-4.3,7c0,2.2,42.9,67,47.9,72.3
		c1.4,1.6,3.8,3.5,5.3,4.3c3.8,2,13.5,1.7,18.3-0.5c3.1-1.4,29.5-19.2,53.8-36.3l2.7-2l-4.1-5.9l-4.2-5.9l-8.1,5.8
		c-26.8,18.9-45.4,31.4-47.5,31.9c-1.3,0.3-3.1,0.2-3.9-0.4c-0.8-0.5-12-16.4-24.8-35.3s-24.1-34.7-25.1-35.1
		C1833.9,988.9,1833,988.9,1830.3,990L1830.3,990z"/>
	<path class="st0" d="M1734.5,1051.8c-2.2,1.4-14.3,8.8-27,16.5c-12.6,7.6-24.3,15.1-25.9,16.6c-3.5,3.2-6.5,9.5-6.6,13.7
		c0,4.7,2.1,9.8,9,21.4c9.7,16.4,10.7,17.7,16.6,20.6c9.5,4.6,11.8,3.9,38.1-11.9c12.4-7.5,22.9-13.4,23.4-13.2
		c2.1,1.4,11,17.7,10.7,19.7c-0.2,1.7-3.1,4-10.3,8.5c-18.3,11.2-18.9,11.7-20,14.6c-1.5,4.3,1,8.1,5.7,8.5c3,0.3,5.7-1,17-7.9
		c7.3-4.4,14.6-9.3,16.2-10.8c5.6-5.1,8-14.2,5.6-20.6c-0.9-2.4-46.3-76-47.9-77.6C1738.8,1049.5,1736.7,1050.4,1734.5,1051.8
		L1734.5,1051.8z M1744,1085.6c5.6,9.1,9.8,16.9,9.4,17.3c-3.7,3.3-41.6,25.1-43.6,25.1c-3.2,0-5.2-2.4-12.6-15.1
		c-4.5-7.6-6.2-11.5-6.2-14.1v-3.6l21.3-13c11.6-7.2,21.3-13.1,21.3-13.1C1733.7,1069,1738.4,1076.5,1744,1085.6L1744,1085.6z
		 M1638,1109.7c-3,1.2-40.6,22.6-43.6,24.9c-4,3-7.4,9.9-7.4,15c0.1,5.2,0.7,6.5,24,49.4l20.1,37l4.7-2.4
		c9.9-5.1,11.2-0.5-12.6-43.8c-11.7-21.2-21.2-39.4-21.2-40.4c0-1.1,0.4-2.4,0.8-3c1.1-1.8,40.1-23.4,42.1-23.4c1,0,2.6,0.9,3.5,1.9
		c1,1,10.8,17.8,22,37.2c16.7,29.3,20.7,35.5,23,36.4c3.4,1.2,7.5-0.9,9.4-4.8c1.1-2.2,1-3.1-0.4-5.9c-5.7-11-41-70.8-43.2-73.2
		c-1.5-1.6-4.1-3.5-5.9-4.2C1650.1,1109,1640.9,1108.6,1638,1109.7L1638,1109.7z M1537.5,1119.5c-1.4,1.3-2.5,3.3-2.5,4.5
		c0,2.7,4.3,7,7,7c2.4,0,8-5.1,8-7.3c0-0.8-0.9-2.6-2.1-4.1C1545.2,1116.2,1540.8,1116.1,1537.5,1119.5L1537.5,1119.5z
		 M1558.5,1153.4c-3.5,2-5.9,4-5.7,4.7c0.7,2.9,46.5,88.5,48,89.6c4.1,3.2,12.2-0.6,12.2-5.8c0-1.7-45.6-88.4-47.9-91.1
		C1564.7,1150.4,1561.8,1151.6,1558.5,1153.4z M1523,1173c-1.9,0.5-13.3,5.9-25.2,12c-23.6,12.1-26.7,14.5-28.7,22.7
		c-0.8,3.1-0.8,5.5-0.1,8.2c1.1,4.2,39.6,83.1,40.5,83.1c1.4,0,12.5-6.1,12.5-6.9c0-0.4-8.8-18.7-19.6-40.5
		c-13.6-27.5-19.4-40.2-18.9-41.5c0.7-2.3,40.4-23.1,44-23.1c1.3,0,2.8,0.6,3.4,1.4c0.6,0.7,9.5,17.5,19.7,37.2
		c10.2,19.8,19.5,36.7,20.7,37.7c4.1,3.6,11.7-0.3,11.7-5.9c0-3.1-37.4-74.6-41.3-79.1c-1.9-2.1-4.7-3.8-8-4.8
		C1528.1,1171.8,1528,1171.8,1523,1173L1523,1173z M1422.3,1177c-4.3,1.7-5.8,8.4-2.5,11.3c1,1,3.3,1.7,5,1.7
		c6.7,0,9.7-7.9,4.6-11.9C1426.5,1175.8,1425.6,1175.7,1422.3,1177z M1438.7,1214.1c-3.2,1.6-5.6,3.3-5.3,3.7
		c0.2,0.4,9.9,20.7,21.6,45.2s21.9,45.3,22.7,46.2c1.8,2,6.4,2.4,9.2,0.8c1-0.5,2.4-2.2,3-3.8c1.1-2.7-0.1-5.6-21-49
		c-12.3-25.4-22.8-46.2-23.4-46.2C1445,1211.1,1441.9,1212.4,1438.7,1214.1z M1408,1228.5c-1.4,0.8-13.3,6.3-26.5,12.2
		c-27.1,12.2-31.2,15.1-33.4,23.7c-0.7,2.7-0.9,6.3-0.5,8c0.6,2.7,30.5,72,34,78.7c2.6,5.2,11.1,4.5,13.4-1.1
		c1.1-2.6,0.6-4.2-5.3-17.7c-3.6-8.1-6.7-15.4-6.9-16.1c-0.2-0.9,7.1-4.7,21.7-11.3c12.1-5.5,22.1-10.1,22.2-10.3
		c0.5-0.5-5.1-12.6-5.8-12.6c-0.4,0-10.5,4.5-22.5,9.9l-21.9,9.9l-3.3-7.1c-1.9-4-5.2-11.4-7.4-16.6c-4-9.3-4-9.4-2.2-11.8
		c1.3-1.6,10.3-6.3,26.9-13.9c13.8-6.3,26.1-12.2,27.5-13.2c3.3-2.5,3.8-7.4,1.1-10.1C1416.7,1226.7,1411.7,1226.4,1408,1228.5
		L1408,1228.5z M1208.3,1270.2c-4.9,2.3-4.6,5.2,2.3,22.8c3.5,9,6.1,16.6,5.9,17c-0.2,0.3-10.4,4.4-22.7,9c-12.3,4.6-24,9.5-26,10.9
		c-7.7,5.4-11,14-8.5,22.1c1.7,5.3,29.7,82.4,30.2,82.8c0.8,0.8,63.8-23.8,66.9-26.2c2-1.5,4.5-4.5,5.6-6.6c4-7.9,3.9-8.5-21-71.8
		c-12.7-32.2-23.8-59.1-24.8-59.8C1214.2,1268.8,1211.3,1268.7,1208.3,1270.2z M1235.8,1358.2c7.3,18.9,13.2,34.9,13.2,35.7
		s-0.7,2.2-1.6,3.2c-1.5,1.7-48.1,19.7-48.7,18.8c-1.2-1.4-24.7-67.3-24.7-69.2c0-1.3,1-3.3,2.3-4.5c2.1-1.9,41.4-17.8,44.8-18.1
		C1222.2,1324,1226.1,1333,1235.8,1358.2z M1310.5,1272.7c-5.7,1.4-46.5,18.9-49.3,21c-4.3,3.3-7,7.7-7.8,12.9
		c-0.5,3.8,0.8,7.8,13.6,39.8c7.8,19.5,15.1,36.7,16.2,38.2c3.1,3.8,9.3,6.4,15.8,6.3c4.4,0,8.1-1,17.9-5.2
		c14.3-6,17.2-8.6,15.2-13.6c-0.7-1.6-2.5-3.4-4.1-4.1c-2.5-1-4.1-0.6-15,3.9c-6.8,2.8-13,5.1-14,5.1c-0.9,0-2.4-0.8-3.4-1.8
		c-1.6-1.9-9-19.1-8.4-19.8c0.3-0.2,50-21.1,60.1-25.2c2-0.8,3.7-1.8,3.7-2.3c0-1.6-19.4-45.6-21.2-48
		C1326,1274.8,1316.3,1271.2,1310.5,1272.7L1310.5,1272.7z M1317.4,1288.9c2.3,2.5,14.6,31.4,13.7,32.3
		c-0.8,0.9-49.3,20.9-49.7,20.5c-0.2-0.1-3.3-7.6-6.9-16.5c-6.4-15.7-7.1-19.3-4.2-20.6c13-5.8,41.7-17.5,43.3-17.5
		C1314.7,1287,1316.5,1287.9,1317.4,1288.9L1317.4,1288.9z M1096,1354.1c-24.8,8.4-29,10.6-32.2,17c-3.3,6.3-2.4,10.6,9.1,46.2
		c6.1,18.5,11.7,34.9,12.5,36.6c2.3,4.3,7.4,7.9,13.3,9.2c4.8,1.1,5.9,1,15.5-2.1c18-5.7,20.5-6.8,21.7-9.9c1.6-3.7-0.2-7.7-4-9
		c-2.3-0.8-5-0.3-14.6,3c-12.8,4.3-15.4,4.6-17.6,2.4c-1.7-1.7-8-19.6-7.1-20.4c0.2-0.3,14.7-5.4,32.1-11.3
		c17.4-5.9,32.1-11.2,32.6-11.7c1.2-1.2-14.3-45-17.8-50.2c-3-4.6-9.7-7.9-15.6-7.8C1121.2,1346.1,1110.6,1349.1,1096,1354.1
		L1096,1354.1z M1126.3,1362.2c1.7,1.5,4.2,7.2,7.6,16.9c2.8,8.1,5.1,15.1,5.1,15.7c0,0.6-3.7,2.3-8.2,4
		c-14.6,5.2-42.9,14.4-43.2,14.1c-1.2-1.4-11.4-34.3-11-35.3c0.3-0.8,2.2-2.1,4.2-3c3.5-1.5,40.9-14.4,42.4-14.5
		C1123.6,1360,1125,1361,1126.3,1362.2L1126.3,1362.2z M994,1386.9c-15.7,4.8-29.9,9.1-31.6,9.6l-3.1,1l14.1,48.5
		c7.7,26.7,14.5,49.1,14.9,49.8c2.8,4.3,12,2.7,13.3-2.3c0.4-1.8-0.6-7-3.1-15.6c-2.1-7.1-3.6-13.2-3.3-13.5
		c0.3-0.3,5.6-2.1,11.8-3.9l11.2-3.4l21.9,10.5c22.9,10.9,24.8,11.4,28.4,7.4c1-1.1,1.5-3.1,1.3-5.2c-0.3-3.2-0.7-3.5-15.8-11
		c-15.2-7.5-15.5-7.7-12.5-8.8c8.4-3.2,15.5-12,15.5-19.4c0-1.7-2.9-12-6.5-23.1c-5.4-17-6.9-20.5-9.7-23.2c-4.1-4-9.6-6.3-14.5-6.2
		C1024.2,1378.1,1009.7,1382.1,994,1386.9L994,1386.9z M1030.4,1395.2c1.4,2.4,11.6,34,11.6,36.2c0,2.9-5,5.1-26.7,11.7
		c-12.5,3.8-23.3,6.9-23.9,6.9c-1.3,0-13.9-41.8-12.9-42.8c1.3-1.4,43.1-14,46.7-14.1C1028.1,1393,1029.3,1393.5,1030.4,1395.2
		L1030.4,1395.2z"/>
</g>
<g id="s_x5F_u">
	<path id="XMLID_1_" class="st1" d="M2303.7-412.3c11.4-22,22.9-53.1,23.6-90.8c0.4-24.8,1.3-51.2-16.3-73.8
		c-13.5-17.3-31.2-23.8-48.5-30.1c-7.9-2.9-35.4-12.3-89.7-8.8c-41.8,2.7-73,11.4-81,13.7c-98.7,28.1-191.1,75.8-196.1,78.5
		c-98.2,51.3-147.3,76.9-217.5,121.2c-106.4,67.2-258.1,164.2-428.1,323.3c0,0-146.8,137.4-256.5,283.5
		c-13.1,17.4-25.1,34.5-26.4,36.3c-60.6,86-94.6,153.3-112.5,191.6c0,0-22.3,48-36.9,112.9c-0.9,3.8-2.7,12.3-2.9,23.6
		c-0.2,10.9-0.4,32.3,12.4,53.5c1.6,2.7,9.4,15.2,24.9,26.1c15.9,11.2,34.2,16.7,55.7,18.3c63.7,4.8,142.1-25.7,148.7-28.2
		c83.9-32.2,125.8-48.3,164.9-68.4c70.1-35.9,167.7-90.4,283.2-169.3c-61.1,20.1-116.5,36.1-164.9,48.8
		c-14.7,3.9-67.8,17.4-133.5,14.1c-22.6-1.1-39.2-3.9-54.3-15.2c-27.6-20.7-31.9-57.1-33.6-73.8c-7.5-71,31.9-135.6,62.7-181.7
		c100.4-150,206-245.8,226.1-263.9c67.4-60.4,135.9-110.4,184.5-145.8c22.5-16.5,55.5-40.5,100.8-70.5c0,0,97.7-65,248.5-145.4
		c16.9-9,62.7-33,127-47.7c42.6-9.7,88.1-19.6,137.8-2.2c34.3,12,61.1,33.6,65.1,36.9C2285.5-433.6,2296.3-421.6,2303.7-412.3
		L2303.7-412.3z"/>
</g>
<g id="s_x5F_b">
	<path id="XMLID_5_" class="st2" d="M1671.8,304c73.6-56.3,140-99.4,192.5-130.9c83.7-50.3,139.6-75.3,251.4-125.5
		c9.3-4.2,62.4-29.4,136-40.6c51.2-7.9,79.5-11.8,107.8,4.7c33.4,19.4,45.6,55.2,51.6,73.5c24.5,75.1-2.6,149.2-19.4,187.3
		c-84.5,193-294.9,362-349.8,405.5c-121.3,96-227.6,180.2-409.2,291.8c-291,178.8-577.1,306.4-583,295.4
		c-2.5-4.6,48.6-33.2,182.9-120.4c54.4-35.3,231.2-151.1,426.7-295.4c35.9-26.5,148.6-110.3,277.6-233
		c20.7-19.7,91.4-88.2,141.3-196.8c47.4-103.2,28-139.1,21.9-150.1c-20.7-36.7-73.2-50.1-84.4-53.1c-15.4-4.2-30-6-46.9-6.3
		c-50.7-0.9-95,11.6-170.4,40.6C1764.4,264,1721.3,281.5,1671.8,304L1671.8,304z"/>
</g>
<g id="i">
	<path id="XMLID_6_" class="st2" d="M2317.5-315c-61.1,15.6-106.5,52.5-115.3,94c-6.4,30.2,3.2,54.5,3.2,54.5
		c6.7,16.9,17.4,27.3,26.9,36.3c4.9,4.6,22.4,20.7,53.8,33.6c42,17.3,79.2,16.8,104.5,16.2c16.3-0.4,37.7-1.1,64.7-8.7
		c20.7-5.9,45.9-13,69.3-34.8c9-8.4,28.5-26.6,34.7-55.3c8.7-40-14.1-74.1-20.5-83.7C2503.1-316.1,2415-335.9,2317.5-315L2317.5-315
		z"/>
</g>
</svg>
